<?xml version="1.0" encoding="utf-8"?>
<!-- Generator: Adobe Illustrator 23.0.3, SVG Export Plug-In . SVG Version: 6.00 Build 0)  -->
<svg version="1.1" id="Layer_1" xmlns="http://www.w3.org/2000/svg" xmlns:xlink="http://www.w3.org/1999/xlink" x="0px" y="0px"
	 viewBox="0 0 300 300" style="enable-background:new 0 0 300 300;" xml:space="preserve">
<g>
	<path d="M221.4,197.5c3,1.2,6.6,2.4,9.5,3.6c-2.9,7.8-7.1,14.9-12.7,21.2c-5.5-5.8-11.1-11.6-16.6-17.3l0.5-0.4
		c2.3-1.7,5.2-3.8,6.5-7.7l1.4-0.9c2.1-2,4.8-4.5,5.5-8.6c0-0.1,0-0.2,0-0.2l0.7-0.9c1.7-2.3,3.8-5.2,3.9-9.3l1-1.4
		c1.4-2.5,3.2-5.7,2.6-9.8c0-0.3-0.2-0.7-0.3-1l0.5-1.1c0.1-0.3,0.2-0.5,0.3-0.8c0,0,0-0.1,0-0.1c0.1-0.3,0.2-0.5,0.3-0.8
		c0-0.1,0-0.1,0.1-0.2c0.1-0.3,0.2-0.6,0.3-0.9c0,0,0-0.1,0-0.1c0.1-0.3,0.2-0.6,0.3-0.9c0,0,0,0,0,0h3.7c2,0,3.4-1.3,3.4-2.9
		c0-1.7-1.5-3-3.4-3h-3.4l0-0.1l0-0.1h3.4c2,0,3.4-1.3,3.4-2.9c0-1.8-1.5-3-3.4-3h-2.8c0,0,0-0.1,0-0.1c0,0,0,0,0-0.1c0,0,0,0,0,0
		h2.8c2,0,3.4-1.3,3.4-2.9c0-1.8-1.5-3-3.4-3H225c0-0.1,0-0.2,0-0.2c0-0.5,0.1-6.5-2.3-9.9c-0.1-0.1-0.1-0.1-0.2-0.2l-0.2-1.4
		c-0.4-2.8-1-6.4-3.9-9.3l0,0l-0.4-1.5c-0.8-2.8-1.9-6.2-5.2-8.8c-0.3-0.2-0.4-0.3-0.7-0.6l-0.4-0.6l-0.4-0.7
		c-1.2-2.7-2.5-5.8-6-7.9l-0.3-0.4l1.1-1.1c6.2-4.6,15.9-1.6,21.5-6.8l29.8-28.6C248.7,52.6,240,45.2,231.4,39L206,72.3
		c-4.4,5.8-1.4,15.7-3.6,22.7l-0.4,0.4l-0.2,0.2c-1.3-1.3-2.8-2.4-4.9-3.2l-1.1-1.2c-2-2.1-4.5-4.7-8.7-5.4c0,0-0.1,0-0.2,0l-1.3-1
		c-2.3-1.7-5.2-3.8-9.3-3.9l-1.3-0.9c-2.6-1.4-5.7-3.2-9.9-2.7c-0.3,0-0.7,0.2-1,0.3l-1.1-0.4c-1.2-0.5-2.5-1-4-1.4v-3
		c6.1-1.5,12.1-4.5,17.8-9.4V52.3c-5.8-3.3-11.8-5.6-18.1-6.7c5.1-2.9,8.3-8.4,8.3-14.5c0-9.3-7.6-17.1-16.9-17.1
		c-9.3,0-17.1,7.8-17.1,17.1c0,6.1,3.4,11.5,8.4,14.4c-6.4,1.1-12.6,3.4-18.5,6.8v11.1c5.7,5,11.7,8,17.8,9.5c0,0.6,0,1.5,0,1.5v1.9
		c-2.7-0.1-6,0-9,2.2c0,0-0.1,0.1-0.1,0.1l-1.1,0.2c-2.9,0.4-6.4,0.9-9.4,3.8c0,0-1.3,0.1-2,0.3c-2.1,0.6-6,1.6-8.5,4.9
		c-0.2,0.2-0.3,0.5-0.5,0.8L109,89c-2.6,1.1-5.9,2.5-8,6l-1.1,0.8c-0.2,0.1-0.3,0.2-0.5,0.3l-0.8-0.8L98.3,95
		c-2.2-6.9,0.2-16.8-4.2-22.7L68.6,39C60,45.3,51.3,52.6,42.5,63.3L72.5,92c5.6,5.3,15.3,2.2,21.4,6.9l1.4,1.1c-0.8,1-1.5,2.2-2,3.7
		c0,0-0.2,0-1.4,0.9c-1.3,1-4.7,4.5-5.4,8.6c0,0.1,0,0.2,0,0.2l-0.7,0.9c-1.7,2.3-3.9,5.2-3.9,9.3c0,0,0-0.2-0.9,1.3
		c-0.9,1.5-3.2,5.7-2.6,9.8c0,0.3,0.2,0.7,0.3,1l-0.5,1.2c-0.1,0.3-0.2,0.6-0.3,0.8c0,0,0,0.1,0,0.1c-0.1,0.3-0.2,0.6-0.3,0.9
		c0,0,0,0,0,0c-0.1,0.3-0.2,0.6-0.3,1c0,0,0,0,0,0c-0.1,0.3-0.2,0.7-0.3,1c0,0,0,0,0,0h-3.5c-2,0-3.4,1.3-3.4,2.9c0,1.8,1.5,3,3.4,3
		h2.1h0.9c0,0.1-0.1,0.1-0.1,0.2h-2.9c-1.9,0-3.4,1.3-3.4,2.9c0,1.8,1.5,3,3.4,3h2.1h0.2c0,0,0,0,0,0.1c0,0,0,0.1,0,0.1h-2.3
		c-2,0-3.4,1.3-3.4,2.9c0,1.7,1.5,3,3.4,3h3.3l0,0.1c-0.1,2.9-0.2,6.5,2.2,9.9c0,0,0.2,1.6,0.2,1.6c0.4,2.8,0.9,6.3,3.7,9.2l0.3,1.6
		c0.8,2.8,1.7,6.3,5,8.8c0.2,0.2,0.7,0.5,0.7,0.5l0.6,1.4c1.1,2.7,2.5,5.9,6,8l0.9,1.2c0.7,1,1.5,2.1,2.5,3.2
		c-5.6,5.9-11.3,11.8-16.9,17.7c-5.6-6.3-9.8-13.5-12.7-21.3c3-1.2,6.4-2.4,9.3-3.6C66.8,191.4,56,183,48.1,170.3
		c-4,16.1-2.8,32,3.8,47.9c1.8-3.2,3.6-6.4,5.4-9.5c5,8.9,10,16.6,15.4,23.3c-5,5.3-9.9,10.5-14.9,15.8c-3.4,3.6,1.6,9.1,5.4,5.2
		c4.8-5.1,9.5-10.3,14.3-15.4c13.2,14.2,28.4,23,47,28.5c9,2.6,15.9,5.2,25.5,20.1c9.4-14.9,16.3-17.5,25.3-20.1
		c19-5.5,34-14.2,47.2-28.5c4.8,5.2,9.7,10.3,14.5,15.5c3.8,4,8.8-1.7,5.4-5.3c-5-5.3-10.1-10.5-15.1-15.8
		c5.4-6.7,10.5-14.4,15.4-23.3c1.6,3.2,3.4,6.4,5.2,9.5c6.6-15.9,7.8-31.8,3.8-47.9C243.7,183,232.9,191.4,221.4,197.5z M159.2,25.9
		c3.3,2.7,4,7.7,1.2,11.3c0,0-0.7,0.3-1.3-0.2C161.8,33.7,161.8,30,159.2,25.9z M137.2,38c-3.9-4.9-2-11.6,1.1-16.5
		c0.5,0.4,0.5,0.6,1.1,1.1C136.1,26.1,135.3,32.1,137.2,38z M214.9,225.7c0.1,0.1-0.6,0.6-0.8,0.8l-16.3-17.7
		c0.3-0.2,0.6-0.5,0.9-0.8L214.9,225.7z M90.3,191.6c0.8,0.2,1.5,0.5,2.1,0.8c0.5,0.2,1,0.4,1.3,0.6c2.2,1.3,3.8,3.9,5.2,6.5
		c-0.2,0.1-0.3,0.1-0.5,0.2c-0.9,0.3-1.4,0.1-2.6-0.4c-3.2-1.9-4.4-4.9-5.5-7.5C90.4,191.8,90.3,191.7,90.3,191.6z M71,156.3
		c0-1.1,0.9-1.8,2.2-1.8h2.5h0h0.5h0.6h0h2.2h1.2h0h0.6h0.6h0h1c0.6,0,1.2,0.2,1.6,0.4c0.4,0.3,0.7,0.7,0.7,1.2
		c0,0.5-0.2,0.9-0.5,1.1c-0.4,0.4-1,0.6-1.8,0.6h-1h0H81h-0.6h0h-0.9h-0.6h-0.5h-0.8h-0.1h-0.2h-0.5h-1.1h-2.4
		C71.9,157.9,71,157.2,71,156.3z M75.5,151.7h-2.3c-1.2,0-2.2-0.7-2.2-1.7c0-1.1,0.9-1.8,2.2-1.8h2.6h0h0.6H77h0h0.3h0H79h0.1h0H80
		h0h0.7h0.6h0h1.2c0.6,0,1.1,0.1,1.5,0.4c0.5,0.3,0.8,0.8,0.8,1.3c0,0.6-0.3,1.1-0.8,1.4c-0.4,0.2-0.9,0.4-1.4,0.4H81h0h-0.6h-0.7h0
		H79h-0.2h-2.2H76h-0.2H75.5L75.5,151.7z M76,145.5h-2.8c-1.2,0-2.2-0.7-2.2-1.7c0-1,0.9-1.8,2.2-1.8h3.3h0h0.6h0.6h0h1.8H81h0h0.6
		h0.6h0h0.3c0.8,0,1.5,0.3,1.9,0.7c0.2,0.3,0.4,0.6,0.4,1c0,0.5-0.2,0.9-0.6,1.2c-0.4,0.3-1,0.5-1.7,0.5H82h0h-0.6h-0.6h0h-1.6h-0.3
		h-1.2H77h-0.6H76z M86.6,115.2c0.3,0.6,0.5,0.9,0.7,1.8c0.1,0.3,0.1,0.6,0.2,1.1c0,0.1,0,0.3,0,0.4c0,2.6-1.5,5.5-3.3,8.3
		c-0.2-0.2-0.4-0.7-0.6-1.4c-0.2-0.7-0.4-1.4-0.4-1.8C83.1,120,84.9,117.5,86.6,115.2z M92.9,105.3c0,0.5,0.1,0.9,0.1,1.4
		c0,0.5,0,0.9,0,1.3c0,0.4-0.1,0.8-0.1,1.1c-0.4,2.5-2.3,5-4.4,7.2c-0.2-0.2-0.3-0.4-0.4-0.6c-0.7-1.3-0.4-3-0.4-3
		c0.7-3.6,3-5.3,5.1-7.2C92.7,105.4,92.8,105.3,92.9,105.3z M94.5,104.1c0.4-1.4,1.1-2.5,1.8-3.4c1.2-1.5,2.6-2.5,4-3.5
		c0,0,0,0,0.1,0c0,0,0,0.1,0,0.1c0.1,0.5,0.2,1,0.1,1.5c0,0.2,0,0.4-0.1,0.6c-0.1,0.6-0.2,1-0.2,1c0,0.1,0,0.2-0.1,0.2
		c-0.8,2.5-3.1,4.8-5.6,6.9c-0.2-0.3-0.3-0.8-0.3-1.2C94.1,105.3,94.4,104.3,94.5,104.1z M102,95.6c1.9-3.2,4.8-4.4,7.4-5.5
		c0,0,0.1,0,0.2-0.1c0,0.1-0.1,0.2-0.1,0.3l-0.4,1.3c0,0.1-0.1,0.2-0.1,0.3c-0.2,0.6-0.5,1.1-0.7,1.5c-1.3,2.2-3.9,3.8-6.5,5.2
		c0-0.3,0-0.5-0.1-0.7C101.7,97.3,101.7,96.9,102,95.6z M111.1,89.7l0.2-0.6c0.1-0.2,0.2-0.5,0.3-0.6c2.3-3,5.4-3.8,8.2-4.6
		c0,0,0.1,0,0.2-0.1c-0.4,0.9-0.8,1.7-1.2,2.4c-0.2,0.4-0.4,0.7-0.6,0.9c-1.6,2-4.5,3.4-7.6,4.5c0.1-0.3,0.2-0.6,0.3-0.8
		C110.9,90.5,111,90.2,111.1,89.7z M132.7,79.3c2.7-1.8,5.5-1.9,8.1-1.8v1.1c-0.3,0.3-0.6,0.6-0.8,0.8c-0.3,0.3-0.6,0.5-0.8,0.7
		c-2,1.4-5,1.8-8.1,2c0.2-0.3,0.4-0.6,0.6-0.9C132,80.6,132.4,80,132.7,79.3L132.7,79.3z M157.9,73.1v2.4v0.6v0.6v2.1v1.2v0.6v0.6
		v0.3c0,1.1-0.5,1.9-1.2,2.2c-0.1,0.1-0.3,0.1-0.5,0.1c-0.3,0-0.5-0.1-0.7-0.2c-0.6-0.3-1-1.1-1-2.1v-0.6v-0.6v-0.6v-1.2V78v-0.5
		v-1.4v-0.6v-1v-0.8v-1.4c0-1.2,0.7-2.2,1.7-2.2c1,0,1.8,0.9,1.8,2.2V73.1z M174.5,81.1c0,0,0.1,0.1,0.2,0.1
		c-0.8,0.3-1.5,0.5-2.1,0.7c-0.6,0.2-1.1,0.3-1.5,0.3c-2.6,0.3-5.7-0.8-8.6-2.2c0.2-0.1,0.5-0.3,0.8-0.4c0.7-0.4,1.4-0.8,1.4-0.8
		c0.3-0.1,0.5-0.2,0.7-0.2C169.1,78.1,172,79.7,174.5,81.1z M210.3,108.8c-0.3-0.1-0.6-0.2-0.9-0.3c-1-0.3-1.9-0.7-2.6-1.1
		c-2.4-1.4-3.9-3.9-5.3-6.5c0.1,0,0.2,0,0.3,0c0.5,0.1,1,0.1,1.4,0.2c0.4,0,0.7,0.1,1.1,0.1c0.1,0,0.2,0.1,0.3,0.1
		c3.3,1.9,4.6,4.8,5.7,7.4C210.2,108.6,210.2,108.7,210.3,108.8z M228.9,142.6c1.2,0,2.2,0.7,2.2,1.7c0,1-0.9,1.8-2.2,1.8h-3h0h-0.6
		h-0.6h0h-1.9h-1.6h0h-0.6H220h0h-0.6c-0.8,0-1.4-0.2-1.8-0.6c-0.3-0.3-0.4-0.6-0.4-1c0-0.3,0.1-0.6,0.3-0.9c0.4-0.5,1.1-0.9,2-0.9
		h0.4h0h0.6h0.6h0h1.4h0.8h0h0h0.7h0.4h0h0.4h1.6H228.9z M226.2,148.8h2.7c1.2,0,2.2,0.7,2.2,1.7c0,1-0.9,1.8-2.2,1.8h-3.1h0h-0.6
		h-2.3h-0.4h0h-0.6h0h-0.7h-0.6h0h-1.1c-0.7,0-1.2-0.2-1.6-0.5c-0.4-0.3-0.6-0.7-0.6-1.2c0-0.5,0.2-0.9,0.6-1.3
		c0.4-0.3,1-0.5,1.6-0.5h1.1h0h0.6h0.7h0h1h0.4h1.6h0.6h0.6H226.2z M231,156.7c0,1-0.9,1.8-2.2,1.8h-3.4h0h-0.6h-0.6h0h-1.8h-1.5h0
		h-0.6h-0.6h0h-0.2c-0.9,0-1.6-0.3-2-0.9c-0.2-0.2-0.3-0.5-0.3-0.8c0-0.4,0.2-0.8,0.4-1.1c0.4-0.4,1.1-0.7,1.8-0.7h0.5h0h0.6h0.6h0
		h1.5h0.4h1.1h0.6h0.6h0.6h2.8C230.1,155,231,155.7,231,156.7z M215.4,185.2c-0.2-0.4-0.4-1.1-0.6-1.6c-0.2-0.7-0.3-1.3-0.3-1.3
		c0-0.1,0-0.3,0-0.4c0-2.7,1.6-5.6,3.3-8.3c0.1,0.4,0.3,0.8,0.3,0.8c0.1,0.3,0.2,0.6,0.3,0.8c0.2,0.6,0.4,1.1,0.4,1.5
		C218.9,180.4,217,183,215.4,185.2z M209.2,195c0,0-0.1,0.1-0.1,0.1c0-0.5-0.1-0.9-0.1-1.4c0-0.3,0-0.6,0-0.8c0-0.6,0.1-1.1,0.2-1.6
		c0.4-2.4,2.2-4.9,4.4-7.2c0.2,0.3,0.3,0.7,0.4,1c0.1,0.4,0.2,0.9,0.3,1.6l0,0.4C213.6,190.9,211.2,193.1,209.2,195z M207.6,195.4
		c0,0.4,0,0.7-0.1,1c-1.1,3.5-3.6,5.4-5.9,7c-0.1-0.7-0.2-1.3-0.1-1.7c0-0.9,0.3-1.5,0.3-1.5c0-0.1,0-0.2,0.1-0.2
		c0.8-2.5,3.1-4.8,5.6-6.9c0,0.4,0,0.9,0,0.9c0,0.3,0.1,0.6,0.1,0.9C207.6,195,207.6,195.2,207.6,195.4z M200.3,203.6
		c-0.1,0.4-0.2,0.7-0.3,1.2c-0.6,1-1.3,1.8-2,2.5c-0.3,0.3-0.6,0.5-0.9,0.8c-0.4,0.3-0.8,0.5-1.2,0.8c-1.1,0.6-2.2,1.1-3.3,1.5
		c0,0,0,0-0.1,0c0-0.1,0.1-0.2,0.1-0.4l0.3-0.9l0.2-0.5c0.2-0.6,0.5-1.2,0.8-1.6c1.2-2.1,3.8-3.8,6.5-5.2c0.1,0.4,0.2,0.7,0.2,1.1
		C200.3,203,200.3,203.3,200.3,203.6z M180.6,216.1c-0.2,0.4-0.4,0.7-0.6,1c-2.6,2.6-5.6,3.1-8.4,3.5c0.1-0.1,0.2-0.6,0.5-1.2
		c0.3-0.5,0.6-1.2,1.2-1.7c1.9-1.8,4.9-2.8,8.2-3.4c-0.2,0.4-0.4,0.8-0.4,0.8C180.9,215.3,180.7,215.7,180.6,216.1z M169.3,221.1
		c-3,2-6.2,1.9-9,1.8c0,0-0.1,0-0.2,0c0.2-0.2,0.4-0.4,0.5-0.6c0.2-0.2,0.4-0.4,0.6-0.6c0.5-0.5,1.1-1,1.6-1.4c2-1.4,5-1.8,8.1-2
		c-0.1,0.6-0.3,1-0.6,1.4C170.1,220.2,169.7,220.6,169.3,221.1L169.3,221.1z M152,225.2v0.3v2.7c0,0.5-0.1,1-0.4,1.4
		c-0.3,0.5-0.8,0.8-1.3,0.8c-0.6,0-1.1-0.3-1.4-0.8c-0.2-0.4-0.4-0.8-0.4-1.4v-3.4v-0.6v-1.7V222v-0.8v-0.7v-0.6v-1.2
		c0-0.5,0.1-1,0.3-1.4c0.3-0.5,0.8-0.9,1.3-0.9c0.6,0,1.1,0.3,1.4,0.9c0.2,0.4,0.3,0.8,0.3,1.4v1.1v0.7v0.7v1.2v0.1v1.5v0.6V225.2z
		 M223.9,159.8c-0.1,0.2-0.1,0.5-0.2,0.7c0,0,0,0.1,0,0.1c-0.1,0.2-0.2,0.5-0.3,0.7c0,0,0,0.1,0,0.1c-0.1,0.3-0.2,0.5-0.3,0.8
		c0,0,0,0,0,0.1c-0.1,0.3-0.2,0.5-0.3,0.8c0,0,0,0.1-0.1,0.1c0-0.1-0.1-0.2-0.1-0.2l-0.5-1.1l-0.2-0.4c-0.3-0.6-0.5-1.2-0.6-1.7
		c0,0,0-0.1,0-0.1h1.2h1.6C223.9,159.7,223.9,159.8,223.9,159.8z M207,180.8l-1.3,2.6l-0.5-0.3l-1.5-0.8l1.7-3.4l-8.4-4.1l1.5-3.1
		l8.4,4.1l1.6-3.3l1.4,0.7l0.7,0.3l-2.9,5.9L207,180.8z M159.5,220.4c0.4,0,0.8,0.1,1.1,0.1c-0.3,0.3-0.6,0.6-0.6,0.6c0,0,0,0,0,0
		c-0.2,0.2-0.4,0.4-0.6,0.6V220.4z M145.8,225v0.3v2.8c0,0.5-0.1,1-0.4,1.4c-0.1,0.2-0.2,0.3-0.4,0.4c-0.3,0.2-0.6,0.3-0.9,0.3
		c-1.1,0-1.8-0.9-1.8-2.2v-3.3v-0.6v-0.6v-1.6v-1.6v-0.6v-0.6v-0.3c0-0.8,0.2-1.4,0.7-1.8c0.3-0.3,0.6-0.4,1-0.4
		c0.5,0,1,0.2,1.3,0.7c0.3,0.4,0.5,1,0.5,1.6v0.5v0.6v0.6v1.7v0.2v1.3v0.6V225z M136.7,221c-0.7,0.4-1.4,0.7-1.9,0.8
		c-3.7,0.5-6.6-1.1-9.1-2.5c0,0-0.1-0.1-0.2-0.1c0.7-0.3,1.4-0.5,2.1-0.7c0.6-0.2,1.1-0.3,1.6-0.3c2.7-0.4,5.8,0.9,8.6,2.2
		c-0.4,0.2-0.8,0.4-0.8,0.4C136.9,220.9,136.8,221,136.7,221z M125.6,217.8c-0.6,0.2-1.2,0.4-1.7,0.4c-3.8,0-6.4-1.9-8.7-3.7
		c0,0-0.1,0-0.1-0.1c0.4-0.1,0.8-0.2,1.2-0.2l1-0.2l0.7-0.1c0.3,0,0.5,0,0.8,0c2.6,0,5.5,1.5,8.3,3.3c-0.4,0.1-0.8,0.3-0.8,0.3
		C126,217.6,125.8,217.7,125.6,217.8z M84,171.8c-0.1-0.1-0.3-0.2-0.4-0.3c-0.1-3.8-0.5-7.7-2.3-10.3c0,0,0-0.1-0.1-0.1l0,0
		c0.1-0.6,0.1-1.1,0.2-1.7c0-0.1,0-0.1,0-0.2h0h1.1c0.7,0,1.4-0.2,1.9-0.5c3.7,29.9,27.3,53.8,57.1,58c-0.3,0.6-0.5,1.3-0.5,2v0.5
		c-0.1,0-0.1,0-0.2,0c-0.4,0.1-0.9,0.3-1.4,0.5c-3.3-1.6-7.1-3.3-10.4-2.8c-0.1,0-0.2-0.1-0.2-0.1c-3.3-2.2-6.7-4.2-10-4.2
		c-0.1,0-0.2,0-0.3,0c-2.6-2.5-5.7-5.1-9-5.7c-0.1,0-0.1,0-0.2,0c-2.3-2.8-5.1-5.9-8.3-6.9c-0.2,0-0.4-0.1-0.5-0.1
		c-1.5-3.1-3.4-6.3-6.1-7.9c-0.3-0.2-1-0.7-1-0.7c-1.3-3.7-2.8-7.4-5.3-9.4c0,0,0,0,0,0h0C87.4,178.2,86.4,174.2,84,171.8z
		 M80.2,159.7c-0.2-0.1-0.3-0.3-0.5-0.4c0,0,0,0-0.1,0h0h0.5C80.2,159.4,80.2,159.5,80.2,159.7z M81.4,153.2c0-0.1,0-0.1,0-0.2h0
		h1.3c0.5,0,1-0.1,1.5-0.3c0,0.2,0,0.5,0,0.7c-0.5-0.2-1-0.3-1.5-0.3H81.4L81.4,153.2z M80.1,153.2H79h-2.4c0-0.1,0-0.1,0-0.2H79h1
		C80.1,153.1,80.1,153.2,80.1,153.2z M78.1,147c-0.1-0.1-0.1-0.1-0.2-0.2c0,0,0,0,0-0.1h0h1.1h1.4c0,0.1,0,0.2-0.1,0.2h-1.3H78.1
		L78.1,147z M81.7,146.8L81.7,146.8h0.8c0.6,0,1.1-0.1,1.6-0.3c0,0.3,0,0.5,0,0.8c-0.5-0.2-1-0.3-1.5-0.3h-0.9h0
		C81.7,147,81.7,146.9,81.7,146.8z M97.9,115.2l0.2-0.2l1.8-2.6l9.5,6.7l-2,2.8L97.9,115.2L97.9,115.2z M105.5,105.9l9,3.3l-6.1-6.2
		l0,0l2.1-2.1l0.3,0.3l7.8,8l-3.3,3.2l-9.3-3.5l6.3,6.4l-2.1,2.1l-7.8-7.9l-0.4-0.4l2.7-2.7L105.5,105.9z M130.1,95.1l3.9-1.3
		l-1.4-4.3l2-0.7l1.3-0.4l0.1,0.2l3.6,10.8l-3.3,1.1l-1.5-4.4l-3.9,1.3l1.5,4.4l-3.2,1.1l-3.5-10.5l-0.2-0.5l3.2-1.1l0.1,0.3
		L130.1,95.1z M139.5,87.4l0.9-0.1l1.8-0.2L143,87l0,0.1l1.3,11.4l-3.5,0.4l-1.3-11.3L139.5,87.4z M146.8,81.6v-0.4
		c0.1,0,0.1,0,0.2,0v0.4c0,0.8,0.2,1.5,0.5,2c-0.4,0-0.9,0.1-1.3,0.1C146.6,83.2,146.8,82.4,146.8,81.6z M146.8,78.7v-2.1
		c0.1,0,0.1,0,0.2,0v2.1V80c-0.1,0-0.1,0-0.2,0V78.7z M148.3,75.2v-0.8v-0.5v-1.6c0-1.2,0.7-2.2,1.7-2.2c1,0,1.8,0.9,1.8,2.2v1.6
		v1.5V76v1.9v0.1v0.5v1.2v0.6v1.3c0,0.8-0.3,1.5-0.8,1.9c-0.3,0.2-0.6,0.3-0.9,0.3c-0.4,0-0.7-0.1-0.9-0.3c-0.5-0.4-0.8-1.1-0.8-2
		V81v-0.6v-0.6v-1.1v-0.7v-1.5v-0.6V75.2z M153.2,78.6v0.9c-0.1,0-0.2,0-0.2-0.1v-0.7C153,78.7,153.1,78.6,153.2,78.6
		C153.1,78.6,153.2,78.5,153.2,78.6L153.2,78.6z M169,98.4l2.3-8.1l0.1-0.2l2.8,0.8l-0.2,0.8l-3,10.4l-4.4-1.3l-1.5-9.8l-2.5,8.7
		l-2.9-0.8l3.2-11l0-0.2l4.5,1.3l0,0.1L169,98.4z M211.4,130.7l-6.5,1.9c-0.6,0.2-1.2,0.4-1.6,0.9c-0.5,0.6-0.6,1.5-0.3,2.3
		c0.6,2.1,2.3,1.9,3.4,1.6l6.2-1.8l0.4-0.1l0.9,3.2l-1.8,0.5l-4.6,1.3c-1.2,0.4-2.6,0.6-3.7,0.1c-1.7-0.8-2.5-2.8-2.9-4.3
		c-1.6-5.5,1.7-6.5,3.5-7l5.5-1.6l0.9-0.3l0.9,3.3L211.4,130.7z M210.4,146.4l-5.2,0.3l0.3,5.5l-2.3,0.1l-0.5-8.9l7.5-0.4l4.1-0.2
		l0.2,3.4L210.4,146.4z M207,121.1l-7.5,9.6l-1.9-3.3l1.6-1.9l-2.4-4.2l-2.4,0.4l-1.7-2.9l11.7-1.5l0.8-0.1l2,3.6L207,121.1z
		 M153.5,218.8v0.7c-0.1,0-0.1,0-0.2,0.1v-0.7c0-0.5-0.1-1-0.2-1.4c0.2,0,0.5,0,0.7,0C153.6,217.8,153.5,218.3,153.5,218.8z
		 M147.3,218.8v0.8c-0.1,0-0.2,0-0.2-0.1v-0.8c0-0.5-0.1-1-0.3-1.5c0.2,0,0.5,0,0.7,0C147.4,217.8,147.3,218.2,147.3,218.8z
		 M147.3,222.3v0.8c-0.1,0.1-0.2,0.1-0.2,0.2v-1v-1.5c0.1,0,0.2,0,0.2,0.1V222.3z M91.8,171.5c0.5-1.3,1.5-1.7,1.9-1.9l1.4,3.2
		c-1,0.6-1.1,1.6-0.7,2.5c0.8,1.9,2.7,1.7,4.7,0.8c0.6-0.3,3.3-1.5,2.3-3.9c-0.7-1.6-1.9-1.3-2.4-1.2l-1.4-3.2
		c3.3-1.5,5.2,2,5.8,3.4c0.5,1.1,1.2,3.1,0.5,4.9c-0.7,1.8-2.3,2.7-3.4,3.2c-1.5,0.6-3.1,0.9-4.7,0.4c-1.2-0.4-2.1-1.2-2.7-2.2
		c-0.3-0.4-0.5-0.9-0.7-1.3c-0.5-1.2-0.8-2.2-0.8-3.2C91.6,172.5,91.7,172,91.8,171.5z M97.8,162.6l2.3-0.6l0.7,2.9l-2.3,0.6
		L97.8,162.6z M114.4,128.5c5.1,16,21.3,67.2,21.8,68.6c-19.8-6.3-34.2-24.8-34.2-46.6c0-11.1,3.7-21.3,10-29.6l-0.3,8.8
		L114.4,128.5z M116.9,135.1l3.9,1.5l2.4,7.4l-4.1-1.6L116.9,135.1z M124.9,160.4l4.3,1.6l2.4,7.4l-4.4-1.7L124.9,160.4z
		 M151.7,208.5c-0.1,1.3-0.4,3-1.5,4.1c-0.6,0.7-1.4,1-2.1,1.2c-0.7,0.2-1.4,0.2-2,0.1c-1-0.1-1.9-0.3-2.7-0.7
		c-0.4-0.2-0.8-0.5-1.1-0.8c-0.6-0.7-0.6-1.4-0.6-1.9l3.1,0.2c0,0.6,0.5,1.1,1.5,1.2c1.8,0.1,2.1-1.3,2.3-3.3
		c-0.6,0.6-1.4,1.1-2.8,1c-1.6-0.1-2.3-0.6-2.9-1.2c-0.6-0.7-1-1.6-0.9-2.6c0.2-2.3,2.2-3.7,5.1-3.5c3.1,0.2,3.9,1.9,4.3,2.9
		C151.7,206.2,151.7,207.3,151.7,208.5z M132.8,185.3l4.7,1.8l2.5,7.5l-4.8-1.8L132.8,185.3z M117.6,196.1l3.6,1.9l3.2-2.8l-0.5,4.2
		l3.6,1.9l-3.9,0.8l-0.8,4.1l-2.2-3.8l-4.3,0.4l3-2.9L117.6,196.1z M108.5,180.8l-2,1.3l-1.6-2.5l2-1.3L108.5,180.8z M103.5,188
		l2.3,2.5c-0.3,0.2-1.2,1.1-0.1,2.3c0.7,0.7,1.5,0.8,2,0.3c0.6-0.6,0.3-1.3,0-1.7l-1.1-2c-0.8-1.5-1.8-3.2,0-4.9
		c1.9-1.8,4.3-0.8,6.4,1.4c0.9,0.9,2.1,2.6,2,4.2c-0.1,1.3-0.9,2.1-1.3,2.4l-2.3-2.5c0.3-0.3,1.3-1.3-0.1-2.7
		c-0.2-0.2-1.2-1.3-2.2-0.4c-0.4,0.4-0.5,0.8-0.1,1.5l1.5,2.7c0.4,0.8,1.5,2.7-0.3,4.4c-1.4,1.3-3.7,1.4-6.2-1.3
		c-0.1-0.1-0.2-0.2-0.2-0.3c-0.7-0.8-1.1-1.5-1.4-2.1C101.7,189.8,102.8,188.6,103.5,188z M133.7,211.5l2.1-8
		c-1,0.5-2.5,0.6-3.1,0.6l0.6-2.4c1.4-0.1,2.3-0.2,3.7-0.9l2.6,0.7l-2.8,10.8l-0.2,0L133.7,211.5L133.7,211.5z M150.9,199.4
		c-3.1,0-6.2-0.3-9.2-0.9c-2.1-6.2-18.1-54.9-23.6-71.7l3.2-1.4l-7.2-7c9-10.3,22.2-16.8,36.9-16.8c13,0,24.8,5.1,33.5,13.4
		c-7.9,2.8-13.2,5.5-18.3,8.2c0.3-3.6,0.4-8.4-7.8-9.1c-10.7-1-24.7,5.1-39.5,13.9c6,7.9,15.3,38.5,17.2,52.6
		c4.5-3.5,10.3-7.1,15-8.7c-0.6,5.7-2.2,19.2,12.4,14.6c10.8-3.4,21.1-13.3,32.7-17.6C189,186.7,171.4,199.4,150.9,199.4z
		 M159.2,98.7l-3.8-0.1l-0.8-2.4l-4.9-0.1l-0.9,2.3l-3.4-0.1l5.1-11.5l3.5,0.1l0.6,0l0,0.1L159.2,98.7z M187.8,140.2
		c-12.8,3-18.9,7.4-23.2,10.1c-0.1-1.4-0.1-2.9-0.1-4.3c0-0.1,0-0.3,0-0.4c6.6-4.3,13.6-7.7,22.4-9.8c0,0,0,0,0,0
		C187.2,137.5,187.6,139.3,187.8,140.2z M190.4,149.1c-9.3,1.4-17.8,6.8-24.8,10.9c-0.2-1.3-0.4-2.7-0.5-4c0,0,0-0.1,0-0.1
		c1.7-1.3,11.7-8.2,23.9-11c0,0,0,0,0,0C189.5,146.3,189.8,147.7,190.4,149.1z M164.9,132.2c-3-1.4-12.1-0.6-12.7,0
		c-0.2-1.4-0.4-3-0.6-4.4c4.1-1.8,9.3-2.2,14-0.5c0,0,0,0,0.1,0C165.3,128.9,165.1,130.6,164.9,132.2z M150.9,123.7
		c-0.1,0-0.5-3.9-0.5-3.9c3.9-1.1,9-2.7,15.8,2.4c0,0-0.4,2.2-0.4,2.8C160.1,122,155.8,121.4,150.9,123.7z M131.8,143.7l-1.6-0.4
		l-1.1,1.3l0-1.6l-1.5-0.6l1.5-0.5l0.1-1.7l1.1,1.3l1.5-0.5l-0.9,1.3L131.8,143.7z M128,130.8c-0.2-11.3,17.9-11.3,18.1,0
		C146.3,142.1,128.2,142.1,128,130.8z M148,121.1l-1.6-0.4l-1.1,1.3l0-1.6l-1.5-0.6l1.5-0.5l0.1-1.7l1.1,1.3l1.5-0.5l-0.9,1.4
		L148,121.1z M148.3,136.1l0-1.6l-1.5-0.6l1.5-0.5l0.1-1.7l1.1,1.3l1.5-0.5l-0.9,1.4l1,1.3l-1.6-0.5L148.3,136.1z M126.4,130.9
		l-1.6-0.4l-1.1,1.3l0-1.6l-1.5-0.6l1.5-0.5l0.1-1.7l1.1,1.3l1.5-0.5l-0.9,1.4L126.4,130.9z M130.9,145.2c2.4-1.2,4.8-2.4,7.2-3.6
		c3.7-1.7,7.9-3.3,11.9-4.3c0.9-0.2,1.8-0.4,2.7-0.6c0,0,0,0,0,0c1.4-0.2,2.8-0.4,4-0.4c1.1,0,3.9-0.5,7.6,0.7
		c-0.1,1.4-0.2,2.8-0.3,4.2c-11.3-4-24.6,4.2-35.3,9.2c-0.4-1.2-0.7-2.3-1.1-3.5C127.7,147,129,146.3,130.9,145.2z M164,145.8
		c0,0.1,0,0.2,0,0.3c0,1.5,0,2.9,0.1,4.4c-12.4-3.4-32.6,8.6-32.6,8.6c-0.4-1.2-0.8-2.5-1.1-3.7C130.3,155.3,152.7,142.2,164,145.8z
		 M164.3,154.3c0.1,0.6,0.1,1.2,0.2,1.8c0.1,0.6,0.1,1.3,0.2,1.9c-12.9-2.8-31,9.8-31,9.8c-0.3-1.3-0.7-2.6-1-4
		C132.8,163.8,152.5,152.1,164.3,154.3z M166.2,165c-0.1,0-0.2,0-0.3,0L166.2,165C166.2,165,166.2,165,166.2,165z M165.3,161.5
		c0.2,1.1,0.4,2.3,0.6,3.5c-12.5-1.8-30.2,11.2-30.2,11.2c-0.3-1.3-0.6-2.7-0.9-4C134.8,172.1,153.4,159.3,165.3,161.5z
		 M164.5,168.1c1.1,0,1.3,0.5,0.7,1.7c-4.4,3.5-9.4,5.6-14.1,7.7c-0.1-1.3,0-2.5,0.2-3.8C155.2,171.7,160.2,169.3,164.5,168.1z
		 M195.3,160.6c0.6,1.2,1,2.1,1.8,3.4c-15.1,5.7-30,18-41.3,21.5c-1.5,0.2-2.3-0.1-4.1-2.9C165.4,178.7,176.9,167.9,195.3,160.6z
		 M167.3,168.9c-0.1-1.3-0.3-2.6-0.4-3.9c7.8-5.2,15.9-9.2,24.9-11.8c0.3,0.9,0.7,1.9,1.1,2.7C183.8,159.2,175.4,163.5,167.3,168.9z
		 M164.6,141.2c0.1-1.4,0.2-2.8,0.3-4.2c1.9-1.1,12.5-7,21-8.8c0.2,1.1,0.2,2.1,0.5,4C177,133.5,166.5,140,164.6,141.2z
		 M165.5,132.1c0.2-1.7,0.5-3.4,0.7-5.2c2.5-1.3,11.3-5.7,19.3-8.6c0,1.4,0.1,2.9,0.2,4.3C174.3,126.3,167.1,131.1,165.5,132.1z
		 M197.8,164.4c-9.1-15.3-12.2-31.4-11.8-48c8.6,8.8,13.9,20.8,13.9,34.1C199.8,155.3,199.1,160,197.8,164.4z M199.5,114.9
		c-1.5,1.4-3.1,0.9-3.6,0.7c-1-0.4-2-1.5-2.4-2L192,112l-3.1,2.8l-2.3-2.5l8.4-7.5l0.2-0.2l3.7,4.2c0.6,0.7,1.4,1.6,1.7,2.8
		c0,0.1,0,0.1,0,0.2C200.9,112.8,200.5,113.9,199.5,114.9z M185.1,100.6l-3-1.7c0.2-0.3,0.8-1.4-0.6-2.2c-0.9-0.5-1.7-0.3-2,0.3
		c-0.4,0.7,0.1,1.3,0.5,1.6l1.7,1.6c1.2,1.2,2.6,2.5,1.4,4.7c-1.3,2.2-3.9,2.1-6.5,0.6c-1.1-0.6-2.8-1.8-3.2-3.4
		c-0.3-1.3,0.2-2.3,0.5-2.7l2.9,1.7c-0.2,0.4-0.9,1.6,0.9,2.6c0.2,0.1,1.6,0.9,2.2-0.2c0.3-0.5,0.3-0.9-0.3-1.5l-2.2-2.1
		c-0.6-0.6-2.2-2.2-1-4.3c0.7-1.2,2-1.9,4-1.5c0.7,0.1,1.5,0.4,2.3,0.9c1.6,0.9,2.4,1.8,2.8,2.6C186.1,98.8,185.5,100,185.1,100.6z
		 M153.7,83.6c-0.4,0-0.8,0-1.2,0c0.3-0.6,0.5-1.2,0.5-2v-0.9c0.1,0,0.2,0,0.2,0.1v0.8C153.2,82.4,153.4,83.1,153.7,83.6z
		 M122.5,93.2l1.2,2l-3.3,2l4.8,8l-2.9,1.8l-4.8-8l-3.2,1.9l-1.2-2l4-2.4l4.1-2.5L122.5,93.2z M96.4,118.9c0.5-0.2,1.3-0.3,2.4,0.2
		c1.1,0.6,1.4,1.3,1.4,2c0.1,0.9-0.2,1.6-0.3,1.9l0.1,0c1.1-2.1,2-1.8,3.8-1.2c0.8,0.2,2,0.6,2.8,0.7l-1.6,3.3
		c-0.7-0.1-1.6-0.4-2.5-0.8c-1.3-0.5-1.8-0.7-2.5,0.7l-0.6,1.3l4.1,2l-1.5,3l-9.9-4.9l-0.5-0.2l2.5-5.1c0-0.1,0.1-0.1,0.1-0.2
		C95,119.9,95.5,119.3,96.4,118.9z M95.8,131.9c4.5,1,5.2,4.7,4.5,7.5c-0.7,3.2-3,5.8-7.2,4.8c-0.3-0.1-0.7-0.2-1.2-0.3
		c-1-0.4-2.2-1.1-3-2.3c-1.1-1.8-0.7-4.1-0.5-5c0.3-1.3,0.8-2.3,1.4-3.1C91.4,131.7,93.8,131.5,95.8,131.9z M88.3,147.2
		c1-1,2-1,2.5-1.1l0.1,3.5c-1.2,0.2-1.6,1.1-1.6,2c0,1.5,1,2.2,2.4,2.5c0.5,0.1,1,0.1,1.6,0.1c0.7,0,3.6-0.1,3.6-2.7
		c0-1.8-1.3-1.9-1.7-2L95,146c3.6-0.1,4,3.8,4.1,5.4c0,1.2-0.1,3.3-1.4,4.7c-1.3,1.4-3.2,1.6-4.4,1.7c-0.5,0-1,0-1.5-0.1
		c-1.1-0.2-2.1-0.6-3-1.3c-1.4-1.2-1.8-2.8-1.8-4.6C87,149.7,87.4,148.2,88.3,147.2z M138.9,221.4c0.8-0.4,1.5-0.7,2.2-0.9v1.2v1.5
		c-1.1-0.3-2.2-0.7-3.2-1.2c0,0-0.2-0.1-0.2-0.1C138.1,221.8,138.5,221.6,138.9,221.4z M153.3,222.4v-1.6c0.1,0,0.1,0,0.2-0.1v1.7
		v1.6c-0.1,0-0.1,0-0.2,0V222.4z M158.1,213.4l0-0.2l-1-8c-0.8,0.8-2.1,1.5-2.7,1.7l-0.3-2.5c1.3-0.6,2-1,3.1-2.2l2.7-0.4l1.4,11.1
		l-2.1,0.3L158.1,213.4z M166.7,210.8c-1.6-0.9-2.4-2.8-2.8-3.8c-0.3-1-0.8-2.9,0-4.6c0.6-1.4,2-2.1,3-2.5c2.1-0.7,3.3-0.2,4,0.2
		c1,0.6,2,1.6,2.7,3.7c0.7,2,0.7,4-0.4,5.4c-0.6,0.7-1.4,1.3-2.6,1.7c-0.2,0.1-0.4,0.1-0.6,0.2C168.8,211.4,167.7,211.3,166.7,210.8
		z M184.3,201.6l-2.2,3.8l-0.8-4.1l-3.9-0.8l3.6-1.9l-0.5-4.2l3.2,2.8l3.6-1.9l-1.8,3.7l2.9,2.8l0.1,0.1l-0.2,0L184.3,201.6z
		 M188.3,187.5l2.3-3l2.4,0.7l3-3.9l-1.4-2.1l2-2.7l6.3,10.9l-0.4,0.5l-2.1,2.8l-0.8-0.2L188.3,187.5z M208.2,170.1l0.8-3.3
		c0.3,0.1,1.6,0.4,2-1.2c0.2-0.9-0.1-1.7-0.8-1.9c-0.8-0.2-1.2,0.5-1.5,0.9l-1.1,2.1c-0.8,1.5-1.7,3.2-4.1,2.6
		c-2.5-0.6-3.1-3.2-2.3-6.1c0.3-1.2,1-3.2,2.4-4c1.1-0.6,2.2-0.4,2.7-0.3l-0.8,3.3c-0.5-0.1-1.8-0.4-2.3,1.6
		c-0.1,0.3-0.4,1.8,0.8,2.1c0.5,0.1,0.9,0,1.3-0.7l1.4-2.7c0.4-0.8,1.5-2.7,3.8-2.2c0.1,0,0.1,0,0.2,0.1c1.7,0.5,2.9,2.4,2.1,5.8
		c-0.3,1.3-0.7,2.2-1.2,2.8C210.6,170.6,209.1,170.3,208.2,170.1z M210.1,157.3l-7.4-0.6l0.3-3.5l7.6,0.6l4,0.3l-0.3,3.5
		L210.1,157.3z M158.4,84c0.5-0.6,0.7-1.4,0.7-2.4v-0.4c0.2,0,0.4-0.1,0.6-0.1c0.4-0.1,0.8-0.2,1.2-0.4c3.3,1.6,7,3.2,10.3,2.7
		c0,0,0.1,0.1,0.1,0.1c3.3,2.2,6.8,4.2,10.1,4.2c0.2,0,0.3,0,0.5,0c2.9,2.7,5.9,5.2,9.1,5.7c0,0,0,0,0.1,0c2.5,3,5.2,6,8.4,7
		c0.1,0,0.2,0.1,0.4,0.1c1.6,3.1,3.3,6.3,6.3,8c0.4,0.2,1.2,0.7,1.2,0.7c1.3,3.7,2.9,7.5,5.5,9.4c0.1,0,0.1,0.1,0.2,0.1
		c0.8,3.8,1.9,7.7,4.2,9.9c0.1,0.1,0.2,0.2,0.4,0.3c0.1,3.1,0.6,7.5,2.6,10.3c0,0,0,0,0,0c0,0,0,0,0,0l0,0c0,0,0,0,0,0c0,0,0,0,0,0
		v0c-0.1,0.3-0.2,1.1-0.3,2.1h-0.4c-0.8,0-1.6,0.2-2.2,0.6C213.4,111.5,188.9,87.4,158.4,84z M221.8,141.3h-0.7h0c0-0.2,0-0.4,0-0.6
		C221.5,141,221.8,141.3,221.8,141.3C221.8,141.3,221.8,141.3,221.8,141.3z M220.2,147.3C220.2,147.3,220.2,147.3,220.2,147.3
		c0,0.1,0,0.2,0,0.2c0,0,0,0,0,0h0h-0.8c-0.6,0-1.2,0.1-1.7,0.3c0-0.3,0-0.6,0-0.9c0.5,0.2,1.1,0.4,1.7,0.4H220.2L220.2,147.3z
		 M221.4,147.4c0-0.1,0-0.1,0-0.2h0h1.4h2c0,0.1,0,0.2,0,0.2h-2L221.4,147.4C221.4,147.5,221.4,147.5,221.4,147.4z M221.5,153.5h1.3
		h0.7c0.1,0.1,0.1,0.1,0.2,0.2h-0.9h-1.3C221.5,153.6,221.5,153.6,221.5,153.5z M220.2,153.7L220.2,153.7h-0.7
		c-0.6,0-1.2,0.1-1.7,0.4c0-0.3,0-0.6,0-0.9c0.5,0.2,1.1,0.3,1.7,0.3h0.8h0C220.2,153.6,220.2,153.6,220.2,153.7z M94,109.3
		c0-0.1,0.1-0.3,0.1-0.4c0,0,5.1-2.7,7.2-8.1c0.1-0.2,0.1-0.4,0.1-0.5c3.1-1.5,6.3-3.4,7.9-6.1c0.2-0.3,0.4-0.7,0.6-1.1
		c3.6-1.2,7.3-2.6,9.3-5.2c0.1-0.1,0.1-0.2,0.2-0.3c0,0,6.5-0.4,10.1-3.9c0.1-0.1,0.2-0.3,0.4-0.4c3.7-0.1,7.4-0.5,9.9-2.3
		c0,0,0.1,0,0.1-0.1l0,0c0.3,0,0.6,0.1,0.9,0.1v0.5c0,1,0.3,1.9,0.9,2.6c-29.5,4.1-53,27.6-57,57.1c-0.6-0.3-1.3-0.5-2.1-0.5h-0.5h0
		c0-0.2-0.1-0.4-0.1-0.6c-0.1-0.4-0.2-0.8-0.4-1.2c1.6-3.3,3.2-7,2.8-10.3c0-0.1,0.1-0.2,0.1-0.2c2.2-3.3,4.2-6.8,4.2-10
		c0-0.2,0-0.4,0-0.6C91,115.3,93.5,112.4,94,109.3z M82.6,172.2c0.2,0.2,0.3,0.3,0.5,0.4c1.9,1.9,2.8,5.1,3.5,8.2
		c-0.2-0.1-0.3-0.2-0.5-0.2c-0.2-0.1-0.5-0.2-0.7-0.4c-0.5-0.2-0.9-0.4-1.4-0.6c-0.2-0.1-0.3-0.2-0.4-0.3c-2.6-2.7-3.1-5.9-3.5-8.7
		c0,0,0,0,0-0.1c0.3,0.2,0.6,0.4,0.9,0.6l1.3,0.9L82.6,172.2L82.6,172.2z M107.8,208.1L107.8,208.1c0.6,0,1.1,0.1,1.5,0.1
		c2.5,0.4,5.1,2.4,7.5,4.6c-0.3,0.2-0.6,0.3-1.1,0.4c-0.8,0.1-1.7,0.2-2.2,0.1c-3.7-0.3-5.9-3-7.9-5.1c0,0,0,0-0.1-0.1
		c0.4,0,0.8-0.1,1.2-0.1L107.8,208.1z M154.8,225.2v-0.6v-0.6v-1.6v-1.9v-0.6v-0.6v-0.4c0-0.6,0.1-1.1,0.4-1.5
		c0.3-0.5,0.7-0.8,1.3-0.8c0.5,0,0.9,0.2,1.2,0.6c0.3,0.4,0.5,1,0.5,1.7v0.3v0.6v0.7v1.7v0.5v0.3v0.7v0.7v1.5v2.4
		c0,1.2-0.7,2.2-1.7,2.2c-1.1,0-1.8-0.9-1.8-2.2V225.2z M182.8,215c0.3-0.6,0.7-1.2,1-1.7c1.6-2,4.5-3.4,7.6-4.5
		c0,0.4-0.2,0.9-0.3,1.3c-0.2,0.6-0.4,1.1-0.4,1.1c-0.1,0.2-0.2,0.5-0.3,0.6c-2.3,3-5.4,3.8-8.2,4.6c0,0-0.1,0-0.2,0.1
		C182.2,216.1,182.5,215.5,182.8,215z M207.9,191.1c0,0.1-6.5,4.2-7.3,8.4c0,0.2-0.1,0.4-0.1,0.6c-3.7,1.3-6.4,3.5-7.9,6.1
		c-0.2,0.3-0.4,0.7-0.5,1.1c-3.4,1.2-7.2,2.6-9.2,5.3c-0.1,0.1-0.1,0.2-0.2,0.3l-0.2-0.3c-3.9,0.7-7.8,1.8-10.1,4.1
		c-0.1,0.1-0.2,0.3-0.4,0.4c-3.7,0.1-7.4,0.5-9.9,2.2c0,0-0.1,0-0.1,0.1l0,0c-0.9-0.1-1.7-0.2-2.6-0.2v-0.4c0-0.7-0.2-1.3-0.4-1.9
		c30.2-3.7,54.3-27.7,58.2-57.8c0.6,0.4,1.3,0.6,2.2,0.6h0.4h0c0,0.2,0.1,0.3,0.1,0.5c0.1,0.4,0.2,0.8,0.4,1.2
		c-1.7,3.5-3.2,7.1-2.8,10.3c0,0.1-0.1,0.2-0.1,0.2c-2,3.1-4.2,6.6-4.2,10c0,0.2,0,0.4,0,0.6C210.8,185.2,208.5,188.1,207.9,191.1z
		 M218.8,171.5c0-0.3-0.1-0.6-0.1-1c0-2.3,1-5,2.2-7.6c0.2,0.4,0.4,0.8,0.6,1.1c0.2,0.3,0.4,0.7,0.6,1l0,0c0.1,0.3,0.2,0.6,0.2,0.8
		c0.1,0.5,0.1,0.9,0.1,1.4c0,3-1.4,5.5-2.6,7.6c0,0-0.1,0.2-0.1,0.2c-0.3-0.7-0.5-1.3-0.7-1.9C219,172.5,218.9,171.9,218.8,171.5z
		 M223.8,141.1c0,0,0,0.2,0,0.2c-0.7-0.6-1.3-1.2-1.8-1.7c-0.3-0.4-0.6-0.7-0.8-1c-1.6-2.3-2.1-5.7-2.3-8.5c0.4,0.3,0.8,0.6,1.3,0.9
		c0.5,0.3,0.9,0.6,1.4,0.8c0.1,0.1,0.1,0.1,0.2,0.2c1.9,2.6,2.1,5.4,2.1,7.9C223.8,140.2,223.8,140.7,223.8,141.1z M221.1,129.8
		c-0.3-0.2-0.5-0.3-0.8-0.5l-0.8-0.5l-0.9-0.6l0,0c-0.2-0.2-0.4-0.3-0.5-0.5c-1.9-1.8-2.8-4.9-3.6-8.1c0.6,0.3,1.2,0.6,1.9,0.9
		c0.3,0.1,0.6,0.3,0.9,0.4c0.1,0.1,0.2,0.1,0.3,0.2C220.2,123.7,220.7,127,221.1,129.8L221.1,129.8z M216.8,119.3
		c-0.4-0.2-0.7-0.3-1.1-0.5l-0.3-0.1l-0.6-0.3c-0.5-0.3-1-0.6-1.3-0.8c-2.1-1.6-3.5-4.5-4.6-7.7c0.4,0.1,0.8,0.3,0.8,0.3
		c0.3,0.1,0.6,0.2,0.9,0.3c0.5,0.2,1,0.4,1.4,0.6C215.1,113.3,216,116.4,216.8,119.3C216.8,119.2,216.8,119.2,216.8,119.3z
		 M203.5,99.7c-0.4,0-0.7,0-1.1,0c0,0,0,0,0,0c-0.1,0-0.2,0-0.3,0c-0.2,0-0.3,0-0.4-0.1c-0.8-0.1-1.4-0.2-1.9-0.4
		c-2.5-0.8-4.8-3.1-7-5.6c0.6,0,1.3,0,2,0c0.4,0,0.7,0,1.1-0.1c0.1,0,0.2,0,0.2,0c2,0.6,3.5,1.7,4.7,3
		C201.9,97.5,202.7,98.6,203.5,99.7C203.5,99.6,203.5,99.7,203.5,99.7z M194.9,92.2c-0.4,0-0.9,0-1.3,0.1l-0.4,0l-0.6,0
		c-0.5,0-0.9-0.1-1.3-0.1c-2.6-0.4-5.2-2.4-7.6-4.7c0.5-0.1,1-0.2,1.5-0.3c0.2,0,0.4-0.1,0.6-0.1c0.4-0.1,0.8-0.1,1.1,0
		C190.6,87.7,192.9,90.1,194.9,92.2C194.9,92.1,194.9,92.2,194.9,92.2z M185.1,85.9c-0.6,0.1-1.2,0.3-1.8,0.4
		c-0.8,0.1-1.4,0.2-1.9,0.2c-2.6,0-5.5-1.5-8.3-3.3c0.4-0.1,0.8-0.3,0.8-0.3c0.2-0.1,0.5-0.2,0.7-0.3c0.6-0.2,1.2-0.4,1.6-0.4
		c3.8,0,6.4,1.9,8.7,3.6C185,85.8,185.1,85.9,185.1,85.9z M162.8,78.4c-0.1,0.1-0.2,0.1-0.3,0.2l-1.5,0.7l0,0
		c-0.6,0.3-1.2,0.5-1.6,0.6c-0.1,0-0.2,0-0.3,0.1V79v-1.9c1.2,0.3,2.4,0.8,3.5,1.2C162.7,78.3,162.7,78.3,162.8,78.4z M142.1,76.3
		v-1.8v-1.3v-0.9c0-1.2,0.7-2.2,1.7-2.2c1.1,0,1.8,0.9,1.8,2.2v1.4v1.9v0.6v0.6v1.9v1.3v0.7v0.6v0.3c0,1.3-0.7,2.3-1.7,2.3
		c-1.1,0-1.8-1-1.8-2.3v-0.4v-0.6V80v-0.8v0v-1.3v-1V76.3z M130.8,79.9c-0.3,0.6-0.8,1.3-1.2,1.9c-0.4,0.5-0.7,0.9-0.7,0.9
		c-0.1,0.1-0.1,0.2-0.2,0.2c-1.8,1.8-4.9,2.8-8.2,3.5c0.2-0.4,0.3-0.7,0.3-0.7c0.1-0.2,0.2-0.4,0.3-0.6c0.3-0.7,0.6-1.3,1-1.7
		C124.6,80.8,128,80.3,130.8,79.9z M83.1,128.9c0,0.3,0.1,0.6,0.1,1c0,2.4-1.1,5.1-2.2,7.6c-0.2-0.4-0.4-0.8-0.6-1.1
		c-0.2-0.4-0.4-0.7-0.6-1.1h0c-0.1-0.3-0.2-0.5-0.2-0.8c-0.1-0.5-0.1-0.9-0.1-1.4c0-3.1,1.4-5.5,2.6-7.7c0,0,0.1-0.1,0.1-0.2
		c0.3,0.7,0.5,1.4,0.7,2.1C82.9,127.9,83.1,128.5,83.1,128.9z M78.3,140C78.3,139.9,78.3,139.9,78.3,140c0.1-0.3,0.2-0.6,0.3-0.9
		c0,0,0-0.1,0.1-0.1c0.1-0.2,0.2-0.5,0.3-0.7c0-0.1,0-0.1,0.1-0.2c0.1-0.3,0.2-0.5,0.3-0.7c0,0,0-0.1,0.1-0.2
		c0.1,0.1,0.1,0.2,0.2,0.3l0.5,1l0,0c0.4,0.8,0.7,1.6,0.8,2.1c0,0.1,0,0.2,0.1,0.3h-1.2H78h0C78.1,140.5,78.2,140.2,78.3,140z
		 M77.7,159.4C77.7,159.4,77.7,159.4,77.7,159.4c0-0.1,0-0.1,0-0.1h0c0,0,0,0,0,0c0.1,0.1,0.2,0.2,0.4,0.3c0.6,0.6,1.2,1.1,1.6,1.6
		c0.2,0.3,0.4,0.5,0.5,0.7c1.5,2.1,1.9,5.2,2,8.5c-0.2-0.2-0.5-0.3-0.7-0.5c-0.5-0.4-1.1-0.7-1.6-1c-0.1-0.1-0.2-0.2-0.3-0.4
		c-1.7-2.4-2-5-2-7.3C77.7,160.6,77.7,160,77.7,159.4z M84,181.1c0.3,0.2,0.7,0.3,1,0.5c0.4,0.2,0.9,0.5,1.3,0.7
		c0.4,0.2,0.7,0.4,1,0.6c2.1,1.6,3.4,4.5,4.5,7.7c-0.4-0.1-0.8-0.3-0.8-0.3c0,0,0,0-0.1,0c-0.9-0.2-1.8-0.5-2.3-0.9
		c-3-2.3-3.8-5.4-4.6-8.2C84.1,181.2,84.1,181.1,84,181.1z M99.8,201.1c0.5,0.1,0.9,0.2,0.9,0.2c2.5,0.8,4.8,3.2,6.9,5.6
		c-0.3,0.1-0.7,0.2-1.1,0.3c-0.2,0-0.5,0-0.7,0c-0.6,0-1.1-0.1-1.5-0.2c-2.1-0.6-3.6-1.8-4.8-3.1c-0.8-0.9-1.6-1.8-2.2-2.8
		C97.7,200.8,98.9,200.9,99.8,201.1z M104.3,208.7l0.5,0.5c2,2.1,4.4,4.7,8.5,5.4l2.1,1.7c2.3,1.7,4.3,3.2,8.4,3.2l1.3,0.9
		c2.5,1.4,5.7,3.2,9.8,2.6c0.4,0,0.8-0.2,1.2-0.4l1.3,0.5c1.1,0.5,2.3,0.9,3.6,1.3v3.6c0,2,1.3,3.4,2.9,3.4c0.2,0,0.3,0,0.4,0
		c-3.3,8-11.8,14.2-18.6,13.3c-16.5-2.6-29.4-8.8-39.1-17.4C92.6,221.2,98.5,214.9,104.3,208.7z M212.9,66.5
		c5.9-7.2,11.5-14.8,17.3-22c0.2,0.7,0.7,0.2,0.7,1.5c-5.6,6.8-11.1,14.5-16.7,21.3c-1.3,2.2-2.8,3.3-4.1,5.5
		c-0.5,0.5-0.4,2.4-0.9,2.9C208.5,71,211,69.1,212.9,66.5z M210.2,90c1.7-2.3,0.7-3.8-0.5-6.3c4.9,1.7,5.1,0.8,7.6-0.7
		c4.6-4.1,9.3-9.1,13.9-12.6c-3.1,4.6-8.4,9.7-12.6,14.2c-2.1,2.3-2.2,3.3-0.4,7.6c-2.5-1.5-3.9-2.8-6.4-1.2
		c-2.2,2.1-4.5,4.1-6.7,6.2c-0.2-0.2-0.4-0.4-0.5-0.5C206.4,94.5,208.3,92.3,210.2,90z M150.3,23.1c4.4,0,8,3.6,8,8c0,4.4-3.6,8-8,8
		c-4.4,0-8-3.6-8-8C142.3,26.7,145.9,23.1,150.3,23.1z M125.9,52.9h47.9c0,0.6,0,0.6,0,1.2H133c-4.8,0-5,1.7-5.6,4
		c-0.5,0-1.1,0-1.6,0C125.9,55.9,125.9,55.2,125.9,52.9z M125.9,64v-1.2h47.9V64H125.9z M66.1,83.2c-6.4-6.7-13.4-13.1-19.8-19.8
		c0.8-0.1,0.3-0.6,1.5-0.5c6.1,6.3,13.1,12.8,19.2,19.1c2,1.5,2.9,3.1,4.9,4.7c0.4,0.6,2.3,0.7,2.8,1.2C70,88.1,68.5,85.4,66.1,83.2
		z M89.8,90.8c-2.5-1.6-3.9-0.3-6.4,1.2c1.8-4.3,1.6-5.2-0.4-7.5c-4.2-4.5-9.4-9.5-12.4-14c4.6,3.5,9.3,8.4,13.8,12.4
		c2.5,1.5,2.7,2.4,7.5,0.7c-1.2,2.4-2.2,3.9-0.5,6.2c1.9,2.2,3.7,4.4,5.6,6.6c-0.2,0.2-0.4,0.4-0.5,0.5C94.2,94.9,92,92.9,89.8,90.8
		z M102.4,207.5c0.4,0.2,0.8,0.3,1.2,0.5L86,226.9c-0.2-0.2-0.9-0.8-0.8-0.8L102.4,207.5z M61.1,253.1c-0.4,0.4-0.9-0.6-0.5-1
		l15.2-16.2c0.4,0.7,0.2,0.5,0.8,1L61.1,253.1z M150.1,274.7c-0.9-4.2-7.1-13.8-12.6-14.3c-19.5-1.8-37.2-9.5-52.1-22.5
		c-9.6-8.4-18.3-19.6-25.4-34.4c-2.5-5.1-5.8,2.1-7,5.2c1-4.2,2.4-8.2,2.6-11.8c0.2-2.6-2.9-11.5-4-14.8c1.8,4,6.5,12.7,9,13.1
		l10.5,1.5c-3.2,0.5-11.2,0.6-9.2,5.3c6,13.6,14.6,25.4,25,34.4c14.5,12.8,32.6,20.7,50.8,21.7c5.5,0.3,10.8-11.4,12.3-15.1
		C150.1,253.2,150.1,264.4,150.1,274.7z M156.4,231.6c1.8,0,3-1.5,3-3.4v-2.1l0,0c0-0.1,0-0.2,0-0.2v-1.7l0.8,0.1
		c2.9,0.1,6.5,0.2,9.9-2.2c0,0,0.1,0,0.1-0.1l1.1-0.2c2.9-0.4,6.4-0.9,9.4-3.8c0,0,0.2,0.1,1.7-0.1c1.5-0.3,6.3-1.7,8.8-5.1
		c0.2-0.2,0.3-0.5,0.5-0.8l1.1-0.5c1.2-0.5,2.5-1,3.7-1.8c5.5,5.9,11,11.8,16.5,17.7c-9.8,8.7-22.7,14.8-39.3,17.5
		c-6.7,0.9-15.2-5.4-18.5-13.5C155.7,231.5,156,231.6,156.4,231.6z M238.3,250.6c0.4,0.4-0.1,1.4-0.5,1l-14.5-15.1
		c0.5-0.5,0.3-0.3,0.8-1L238.3,250.6z M244.6,196.7c0.2,3.7,1.6,7.7,2.6,11.8c-1.2-3.1-4.5-10.2-7-5.2
		c-18.6,38.6-49.4,54.4-83.2,57.2c-0.1-1.5,0.2-0.8,0.1-2.2c38.6-3.1,65.8-22.5,81.1-56.6c2.2-4.9-6-4.8-9.2-5.3l10.5-1.5
		c2.5-0.4,7.2-9.1,9-13.1C247.5,185.2,244.4,194.1,244.6,196.7z"/>
	<polygon points="199.1,120.9 200.8,123.7 204.2,120 204.2,119.9 	"/>
	<path d="M170.5,205c-0.2-0.5-0.6-1.8-1.1-2.5c-0.2-0.3-0.7-1-1.7-0.6c-0.9,0.3-1.6,0.9-0.5,4.1c0.7,2.3,1.4,3.4,2.8,3
		c0.5-0.2,0.9-0.6,1-1C171.1,207,170.6,205.2,170.5,205z"/>
	<polygon points="152.4,89.1 150.5,94 153.8,94 152.4,89.1 	"/>
	<path d="M195.9,108.5l-2.3,2l1,1.1c0.5,0.6,1.4,1.6,2.6,0.6c1.1-0.9,0.3-1.9-0.3-2.6L195.9,108.5z"/>
	<path d="M93.8,140.9c1.8,0.4,3.7,0.2,4.2-2c0.5-2.4-1.5-3.2-3-3.6c-1.6-0.4-2.5-0.1-3,0.1c-0.7,0.3-1.1,1.1-1.2,1.8
		C90.2,139.4,91.9,140.4,93.8,140.9z"/>
	<path d="M146.8,204.3c-1.2-0.1-1.9,0.6-1.9,1.6c-0.1,0.8,0.3,1.8,1.7,1.9c1.3,0.1,1.9-0.6,2-1.6
		C148.6,205.4,148.2,204.4,146.8,204.3z"/>
	<polygon points="195.1,185.9 199.9,187.6 200,187.5 197.1,183.2 	"/>
	<path d="M98,125c0.3-0.7,0.5-1,0.5-1.3c0.1-0.8-0.5-1.2-0.8-1.4c-1.3-0.6-1.9,0.6-2.3,1.4l-0.6,1.1l2.6,1.2L98,125z"/>
	<path d="M134.7,126.8C134.7,126.8,134.7,126.8,134.7,126.8C134.7,126.8,134.7,126.8,134.7,126.8z"/>
	<path d="M134.9,126.9C134.9,126.9,134.9,126.9,134.9,126.9C134.9,126.9,134.9,126.9,134.9,126.9z"/>
	<path d="M139.2,136.3C139.2,136.3,139.2,136.3,139.2,136.3C139.2,136.3,139.2,136.3,139.2,136.3z"/>
	<path d="M143.6,126.5L143.6,126.5c-0.1,0-0.2,0-0.2-0.1c0,0-0.1,0-0.1,0c0,0,0,0,0,0c-0.1,0-0.4,0.1-0.4,0c-0.1,0-0.3,0-0.3,0
		c-0.1,0-0.2,0-0.2-0.1c-0.1,0-0.1,0-0.2,0l0,0c0,0-0.1,0-0.1,0c-0.1-0.1-0.1-0.1-0.2,0c0-0.1-0.3,0.1-0.3,0c-0.1,0-0.5,0.2-0.6,0.1
		l-0.2,0.1c0-0.1-0.4,0.2-0.4,0.2c0,0-0.2-0.1-0.2-0.2l0-0.1c-0.1-0.1-0.3,0.1-0.4,0l0,0l-0.1,0c0,0-0.3,0-0.4,0.1
		c0-0.2-0.4,0.1-0.5,0.1c0,0,0,0,0,0c0,0,0,0,0,0c0,0-0.1,0.1-0.1,0.1c0,0,0,0-0.1,0c-0.1,0.2-0.3,0.3-0.5,0.4c0-0.1-0.2,0-0.2,0
		c-0.1,0-0.1,0-0.1,0l0,0c0,0-0.1,0-0.1,0c0,0,0-0.1-0.1-0.1c0,0,0-0.1-0.1,0l0-0.1c0,0,0,0,0.1,0l0-0.1c0-0.1,0-0.1,0-0.1l0,0
		c0.1,0,0.1-0.1,0.1-0.1c0-0.1,0.3-0.4,0.3-0.4c0-0.1,0-0.1,0-0.2c-0.1,0-0.2-0.1-0.3-0.1c0-0.1-0.1-0.2-0.1-0.2
		c0-0.1,0-0.2-0.1-0.2c0-0.1-0.1-0.2-0.1-0.2l0-0.1c0,0-0.1,0-0.1,0l-0.1,0l0,0l0,0.1c0,0,0,0.1-0.1,0.1c0,0.1-0.1,0.1-0.1,0.1
		c0,0,0,0.1,0,0.1c0,0,0,0,0,0.1l0,0.1l0,0.1c0,0-0.1,0-0.1,0.1c0,0,0,0,0,0.1c-0.1,0-0.1,0.1-0.2,0.1l0,0.1l-0.3,0.1
		c-0.1-0.1-0.5,0.1-0.6,0.2c0,0,0,0.1,0,0.1c0,0,0,0.1-0.1,0.1c0,0.1,0,0.1,0,0.2c-0.2,0-0.3,0.2-0.4,0.2c0,0,0,0.1,0,0.1
		c-0.1,0-0.2,0.1-0.3,0.1c0-0.1-0.1-0.1-0.1-0.1c0,0,0,0,0,0c0,0,0-0.1-0.1,0c0-0.1,0-0.1,0-0.1c0,0-0.1-0.1-0.1-0.1l0-0.3l0-0.1
		c0,0,0.2-0.2,0.2-0.2c0-0.1,0-0.2-0.1-0.3c-0.1,0-0.1,0-0.1-0.1c-0.1,0-0.2-0.1-0.4-0.1l0,0.1l-0.1,0l0,0.1c-0.1,0-0.1,0.1-0.1,0.2
		c0,0-0.1,0-0.1,0c0,0,0,0.1,0,0.1l-1.1,0.4c0,0,0,0.1,0,0.1c-0.1,0,0,0.1,0,0.2c0,0,0.1,0,0.1,0l0,0.1l0,0c0.1,0,0.1,0,0.1,0
		c0,0,0.1,0,0.1,0.1c0,0,0.1,0,0.1,0c0.1,0.1-0.1,0.2,0,0.4c-0.1,0-0.1,0.1-0.1,0.1l-0.1,0c-0.1,0.3-0.9,0.1-1.1,0.2
		c-0.2-0.2-0.7,0.2-0.9,0.2l0,0.1c0,0,0.1,0.1,0.1,0.1l0.1,0l0,0.1l-0.1,0c0,0.1,0,0,0,0.1l-0.1,0l0,0.2l0,0c0.1,0,0.1,0,0.1,0.1
		c0,0,0.1,0,0.1,0l0,0.1c0,0.1,0.1,0.3,0,0.3c0,0.3-0.1,0.7-0.1,0.9l-0.5,0.2c0,0,0,0.1-0.1,0.1c0,0.1-0.2,0.2-0.4,0.3l0,0
		c-0.3,0.3-0.1,0.3-0.2,0.6h0l0,0.1c0,0,0,0.1-0.1,0.1c0,0.1,0,0.2,0,0.2c0,0,0.1,0.1,0.1,0.2c0,0,0,0,0,0c0.1,0,0.1,0.1,0.1,0.2
		c0.1,0,0.1,0,0.1,0l0,0l0,0l0.1,0c0,0,0.1,0,0.1,0c0,0.1,0.2,0,0.2,0c0,0,0.1-0.1,0.1-0.1l0.3-0.1c0,0,0,0.1,0,0.1c0,0,0,0.2,0,0.2
		c0,0,0.1,0,0.2,0v0c0.1,0,0.4,0,0.5-0.1l0.1,0c0,0,0.1-0.1,0.1-0.1h0l0-0.1c0.1,0,0.2-0.1,0.2-0.2c0,0,0-0.1,0.1-0.1
		c0-0.1,0-0.1,0.1-0.2c0.1,0,0.3-0.1,0.4-0.1l0,0l0,0.1l0.1,0.3c0,0,0,0,0,0.1c0,0,0.1,0.1,0.1,0l0,0.1c0,0,0,0,0,0
		c0,0.1,0.4,0.2,0.5,0.1c0.1,0.1,0.2,0.1,0.3,0.1c0,0.1,0.1,0,0.1,0.1c0.1,0,0.1,0,0.1,0c0.2-0.1,0.5-0.1,0.7-0.1l0.1,0.5l0,0.1l0,0
		c0.1,0,0.3-0.1,0.4-0.1c0,0,0,0.1,0.1,0c0,0.1,0.1,0.2,0.1,0.2c0,0.3,0.3,0.5,0.3,0.8c0.1,0,0.1,0.6,0.2,0.8h0
		c0.2,0,0.4-0.1,0.5-0.1c0,0.1,0,0.1,0.1,0.1c0,0,0.1,0.1,0.1,0.1c0,0,0.1,0,0.1,0l0,0.3c0,0,0,0,0,0c0.1,0,0.2,0,0.3-0.1l0.1,0.5
		c0,0,0.1,0.1,0.2,0.1c0,0,0.1,0.1,0.1,0.1l0,0.3c-0.1,0-0.1,0.1-0.2,0.2c0,0.1-0.1,0.1-0.1,0.1c0,0.1-0.1,0.2-0.1,0.2
		c-0.2,0.1-0.1,0.3-0.2,0.4c0,0,0,0.1,0,0.1l-0.1,0c0,0.1-0.1,0.1-0.1,0.1c0,0.1-0.1,0.1-0.2,0.1c0,0.1-0.2,0.3-0.2,0.4
		c0.2,0,0.3,0,0.5,0c0,0,0.1,0,0.1,0.1c0,0,0.2-0.1,0.2-0.1l0.1,0c0,0,0.2,0.1,0.2,0.1c0,0,0,0,0,0.1c0,0,0.3,0.2,0.2,0.3l0,0.2
		l0.1-0.1c0-0.1,0.1-0.1,0.1-0.2c0.1,0,0-0.1,0-0.2c0.1,0,0.1-0.3,0.1-0.4c0,0,0,0,0.1,0c0,0,0-0.1,0-0.2c0,0,0-0.1,0.1-0.1
		c0-0.1,0,0,0-0.1l0.2-0.1c0,0-0.1,0.1-0.1,0.2c0,0,0,0.1-0.1,0.1c0,0.1,0,0,0,0.1c-0.1,0,0,0-0.1,0.1c0,0.1,0,0.1,0.1,0.2l0.1,0
		c0,0,0-0.1,0-0.1c0.1,0,0,0,0.1-0.1c0,0,0.1-0.1,0.1-0.2l0,0c0,0,0.1-0.1,0.1-0.2c0-0.1,0-0.1,0-0.1l0-0.1c0-0.1,0-0.1,0.1-0.1
		c0-0.1,0-0.1,0.1-0.1l0-0.1c0,0,0,0,0,0c0-0.1,0-0.1,0.1-0.2c0.1-0.3,0.1-0.7,0-1c0,0,0.1-0.3,0.1-0.3c0,0,0.1-0.1,0.1-0.1
		c0,0,0-0.1,0-0.1c0,0,0.1-0.1,0.1-0.2c0-0.1,0.1-0.1,0.1-0.1c0,0,0.1-0.2,0.1-0.2c0.1-0.2,0.5-0.3,0.6-0.3c0-0.1,0.2-0.2,0.3-0.2
		c0-0.2,0.5-0.2,0.6-0.3c0,0,0.1-0.1,0.1-0.1c0,0,0.1-0.1,0.1-0.1l0,0c0-0.1,0-0.1,0-0.2c0.1,0,0,0,0.1-0.1l0-0.1l0.1,0l0,0l0,0
		c0-0.1,0-0.1,0.1-0.2c0,0,0-0.1,0.1-0.1c0,0,0-0.1,0-0.1c0,0,0,0,0,0c0-0.1,0-0.1,0,0c0,0,0-0.1,0.1-0.1l0-0.1
		c0.1-0.1,0-0.4,0.1-0.5c0-0.2,0.1-0.4,0.1-0.6c0.1-0.1,0-0.5,0-0.6l0-0.6l0-0.1l0.2-0.1c0-0.1,0.2-0.2,0.2-0.3l0.1,0
		c0,0,0-0.1,0-0.1c0.1,0,0.1-0.1,0.1-0.2c0.1,0,0.1-0.2,0.1-0.2c0,0,0,0,0.1,0c0,0,0-0.1,0-0.1l0.1-0.1c0,0,0-0.1,0.1-0.1l0-0.1
		c0,0,0.1-0.1,0.1-0.2c0,0,0,0,0-0.1c0.2-0.1,0.2-0.9,0.2-1.1C143.7,126.7,143.6,126.6,143.6,126.5z"/>
	<path d="M138.7,126.4C138.7,126.4,138.7,126.4,138.7,126.4l0-0.2l-0.1,0l0-0.1l0,0c0,0-0.6,0-0.6,0.2l-0.1,0l0,0.1c0,0,0,0.1,0,0.1
		l-0.1,0l0.1,0l0,0.1l0,0l0.1,0c0,0,0,0,0,0c0,0,0.1-0.1,0.2,0c0.1-0.1,0.2-0.1,0.3-0.2C138.6,126.5,138.6,126.5,138.7,126.4
		C138.7,126.5,138.7,126.5,138.7,126.4z"/>
</g>
</svg>
